<svg width="40" height="40" viewBox="0 0 40 40" fill="none" xmlns="http://www.w3.org/2000/svg">
<rect x="0.37945" y="0.379541" width="39.2411" height="39.2411" rx="8.72735" fill="#FAFAFA"/>
<rect x="0.37945" y="0.379541" width="39.2411" height="39.2411" rx="8.72735" stroke="white" stroke-width="0.7589"/>
<path d="M24.0431 17.326H29.984C30.5454 17.326 31.0003 17.781 31.0003 18.3423V23.7537C31.0003 25.8165 29.3281 27.4888 27.2653 27.4888H27.2476C25.1848 27.4891 23.5122 25.8171 23.512 23.7542V17.8572C23.5119 17.7875 23.5256 17.7184 23.5523 17.6539C23.579 17.5895 23.6181 17.5309 23.6674 17.4815C23.7168 17.4322 23.7753 17.3931 23.8398 17.3664C23.9043 17.3397 23.9734 17.326 24.0431 17.326Z" fill="#5A62C3"/>
<path d="M28.0584 16.2561C29.3877 16.2561 30.4654 15.1784 30.4654 13.849C30.4654 12.5197 29.3877 11.442 28.0584 11.442C26.729 11.442 25.6514 12.5197 25.6514 13.849C25.6514 15.1784 26.729 16.2561 28.0584 16.2561Z" fill="#5A62C3"/>
<path d="M20.5697 16.2556C22.4898 16.2556 24.0464 14.699 24.0464 12.7788C24.0464 10.8587 22.4898 9.30206 20.5697 9.30206C18.6495 9.30206 17.0929 10.8587 17.0929 12.7788C17.0929 14.699 18.6495 16.2556 20.5697 16.2556Z" fill="#7B83EB"/>
<path d="M25.2056 17.326H15.3991C14.8445 17.3397 14.4057 17.8 14.4186 18.3546V24.5266C14.3412 27.8548 16.9742 30.6167 20.3023 30.6981C23.6304 30.6167 26.2634 27.8548 26.1861 24.5266V18.3546C26.1989 17.8 25.7602 17.3397 25.2056 17.326Z" fill="#7B83EB"/>
<path opacity="0.1" d="M20.8372 17.326V25.9751C20.8359 26.1691 20.7773 26.3583 20.6689 26.5192C20.5604 26.68 20.4068 26.8052 20.2274 26.8791C20.1106 26.9285 19.9851 26.9539 19.8583 26.9539H14.8892C14.8196 26.7774 14.7555 26.6008 14.7019 26.4191C14.5147 25.8053 14.4192 25.1672 14.4185 24.5255V18.353C14.4056 17.7993 14.8436 17.3397 15.3973 17.3261L20.8372 17.326Z" fill="#01274E"/>
<path opacity="0.2" d="M20.3025 17.326V26.51C20.3025 26.6368 20.2771 26.7623 20.2277 26.8791C20.1538 27.0585 20.0286 27.212 19.8678 27.3205C19.7069 27.429 19.5177 27.4876 19.3237 27.4888H15.141C15.0501 27.3123 14.9644 27.1358 14.8896 26.9539C14.8177 26.7791 14.7552 26.6006 14.7024 26.4191C14.5151 25.8053 14.4196 25.1672 14.4189 24.5255V18.353C14.4061 17.7993 14.8441 17.3397 15.3978 17.3261L20.3025 17.326Z" fill="#01274E"/>
<path opacity="0.2" d="M20.3026 17.326V25.4402C20.2986 25.9791 19.8627 26.415 19.3238 26.4191H14.7024C14.5151 25.8053 14.4196 25.1672 14.4189 24.5255V18.353C14.4061 17.7993 14.8441 17.3397 15.3978 17.3261L20.3026 17.326Z" fill="#01274E"/>
<path opacity="0.2" d="M19.7678 17.326V25.4402C19.7636 25.9791 19.3278 26.415 18.7889 26.4191H14.7024C14.5151 25.8053 14.4196 25.1672 14.4189 24.5255V18.353C14.4061 17.7993 14.8441 17.3397 15.3978 17.3261L19.7678 17.326Z" fill="#01274E"/>
<path opacity="0.1" d="M20.8373 14.5603V16.2451C20.7463 16.2505 20.6607 16.2559 20.5698 16.2559C20.4789 16.2559 20.3932 16.2505 20.3023 16.2451C20.1218 16.2332 19.9428 16.2045 19.7675 16.1596C19.2335 16.0331 18.737 15.7821 18.3187 15.427C17.9003 15.0718 17.572 14.6227 17.3605 14.1164C17.2866 13.9439 17.2293 13.7648 17.1893 13.5815H19.8584C20.3981 13.5835 20.8352 14.0205 20.8373 14.5603Z" fill="#01274E"/>
<path opacity="0.2" d="M20.3025 15.0948V16.2448C20.1219 16.2328 19.9429 16.2041 19.7676 16.1592C19.2337 16.0327 18.7372 15.7817 18.3189 15.4266C17.9006 15.0714 17.5722 14.6223 17.3607 14.116H19.3236C19.8634 14.118 20.3004 14.5551 20.3025 15.0948Z" fill="#01274E"/>
<path opacity="0.2" d="M20.3025 15.0948V16.2448C20.1219 16.2328 19.9429 16.2041 19.7676 16.1592C19.2337 16.0327 18.7372 15.7817 18.3189 15.4266C17.9006 15.0714 17.5722 14.6223 17.3607 14.116H19.3236C19.8634 14.118 20.3004 14.5551 20.3025 15.0948Z" fill="#01274E"/>
<path opacity="0.2" d="M19.7677 15.0948V16.1593C19.2337 16.0328 18.7373 15.7818 18.3189 15.4266C17.9006 15.0715 17.5722 14.6224 17.3607 14.116H18.7889C19.3287 14.1181 19.7657 14.5552 19.7677 15.0948Z" fill="#01274E"/>
<path d="M8.98046 14.1161H18.7869C19.3285 14.1161 19.7675 14.5551 19.7675 15.0966V24.9031C19.7675 25.4446 19.3285 25.8835 18.787 25.8835H8.98046C8.43898 25.8835 8 25.4446 8 24.9031V15.0966C8 14.555 8.43898 14.1161 8.98046 14.1161Z" fill="url(#paint0_linear_1_231)"/>
<path d="M16.4644 17.8487H14.504V23.1869H13.2551V17.8487H11.3039V16.8132H16.4644V17.8487Z" fill="white"/>
<defs>
<linearGradient id="paint0_linear_1_231" x1="212.424" y1="-62.4907" x2="980.33" y2="1267.47" gradientUnits="userSpaceOnUse">
<stop stop-color="#5A62C3"/>
<stop offset="0.5" stop-color="#4D55BD"/>
<stop offset="1" stop-color="#3940AB"/>
</linearGradient>
</defs>
</svg>
